{"title":"Shadow.People.2012.WEBRip XVID juggs","uid":8237651,"size":746644675,"categoryP":"video","categoryS":"movies","magnet":"?xt=urn:btih:dbe4ef0be1f3cec47c2a58d811f21330677fb661&amp;dn=Shadow.People.2012.WEBRip+XVID+juggs&amp;tr=udp%3A%2F%2Ftracker.openbittorrent.com%3A80&amp;tr=udp%3A%2F%2Fopen.demonii.com%3A1337&amp;tr=udp%3A%2F%2Ftracker.coppersurfer.tk%3A6969&amp;tr=udp%3A%2F%2Fexodus.desync.com%3A6969","seeders":1,"leechers":2,"uploader":"juggs99","files":3,"time":1362879572,"description":"Source : NGB\n\n\nFormat : AVI\nFormat/Info : Audio Video Interleave\nFile size : 705 MiB\nDuration : 1h 28mn\nOverall bit rate : 1 108 Kbps\nWriting library : VirtualDub build 32842/release\n\nVideo\nID : 0\nFormat : MPEG-4 Visual\nFormat profile : Advanced Simple@L5\nFormat settings, BVOP : 4\nFormat settings, QPel : No\nFormat settings, GMC : No warppoints\nFormat settings, Matrix : Default (H.263)\nMuxing mode : Packed bitstream\nCodec ID : XVID\nCodec ID/Hint : XviD\nDuration : 1h 28mn\nBit rate : 971 Kbps\nWidth : 604 pixels\nHeight : 252 pixels\nDisplay aspect ratio : 2.40:1\nFrame rate : 23.976 fps\nColor space : YUV\nChroma subsampling : 4:2:0\nBit depth : 8 bits\nScan type : Progressive\nCompression mode : Lossy\nBits/(Pixel*Frame) : 0.266\nStream size : 618 MiB (88%)\nWriting library : XviD 64\n\nAudio\nID : 1\nFormat : MPEG Audio\nFormat version : Version 1\nFormat profile : Layer 3\nMode : Joint stereo\nMode extension : MS Stereo\nCodec ID : 55\nCodec ID/Hint : MP3\nDuration : 1h 28mn\nBit rate mode : Constant\nBit rate : 128 Kbps\nChannel(s) : 2 channels\nSampling rate : 44.1 KHz\nCompression mode : Lossy\nStream size : 81.4 MiB (12%)\nAlignment : Split accross interleaves\nInterleave, duration : 42 ms (1.00 video frame)\nInterleave, preload duration : 500 ms\nWriting library : LAME3.98\n\nPlot\nA radio talk show host unravels a conspiracy about encounters with mysterious beings known as The Shadow People and their role in the unexplained deaths of several hundred victims in the 1980s\n\n &lt;a href=&quot;\nhttp://www.shotpix.com/images/71988577136528871168.png&quot; rel=&quot;nofollow&quot; target=&quot;_NEW&quot;&gt;\nhttp://www.shotpix.com/images/71988577136528871168.png&lt;/a&gt; &lt;a href=&quot;\nhttp://www.shotpix.com/images/77119560355225431742.png&quot; rel=&quot;nofollow&quot; target=&quot;_NEW&quot;&gt;\nhttp://www.shotpix.com/images/77119560355225431742.png&lt;/a&gt; &lt;a href=&quot;\nhttp://www.shotpix.com/images/09420812821163278451.png&quot; rel=&quot;nofollow&quot; target=&quot;_NEW&quot;&gt;\nhttp://www.shotpix.com/images/09420812821163278451.png&lt;/a&gt; &lt;a href=&quot;\nhttp://www.shotpix.com/images/42873249803447618079.png&quot; rel=&quot;nofollow&quot; target=&quot;_NEW&quot;&gt;\nhttp://www.shotpix.com/images/42873249803447618079.png&lt;/a&gt;","torrent":{"xt":"urn:btih:dbe4ef0be1f3cec47c2a58d811f21330677fb661","amp;dn":"Shadow.People.2012.WEBRip+XVID+juggs","amp;tr":["udp%3A%2F%2Ftracker.openbittorrent.com%3A80","udp%3A%2F%2Fopen.demonii.com%3A1337","udp%3A%2F%2Ftracker.coppersurfer.tk%3A6969","udp%3A%2F%2Fexodus.desync.com%3A6969"],"infoHash":"dbe4ef0be1f3cec47c2a58d811f21330677fb661","infoHashBuffer":{"type":"Buffer","data":[219,228,239,11,225,243,206,196,124,42,88,216,17,242,19,48,103,127,182,97]},"announce":[],"urlList":[]}}